<svg width="24" height="28" viewBox="0 0 24 28" fill="none" xmlns="http://www.w3.org/2000/svg">
<path fill-rule="evenodd" clip-rule="evenodd" d="M6.33335 0.661503H16.9511C20.8645 0.661503 23.0435 3.0293 23.0435 7.08649V20.8277C23.0435 24.9514 20.8645 27.266 16.9511 27.266H6.33335C2.48203 27.266 0.239655 24.9514 0.239655 20.8277V7.08649C0.239655 3.0293 2.48203 0.661503 6.33335 0.661503ZM6.67082 6.86043C6.67449 6.86041 6.6775 6.85743 6.6775 6.85376V6.85376C6.6775 6.85009 6.68048 6.84711 6.68415 6.84711H10.4642C11.0102 6.84711 11.4536 7.31269 11.4536 7.88335C11.4536 8.46998 11.0102 8.93556 10.4642 8.93556H6.6775C6.13148 8.93556 5.68933 8.46998 5.68933 7.89799C5.68933 7.32833 6.12787 6.86422 6.67082 6.86043ZM6.67764 14.9482H16.61C17.1547 14.9482 17.5981 14.4826 17.5981 13.9106C17.5981 13.3386 17.1547 12.8717 16.61 12.8717H6.67764C6.13161 12.8717 5.68947 13.3386 5.68947 13.9106C5.68947 14.4826 6.13161 14.9482 6.67764 14.9482ZM6.67783 21.0273H16.6102C17.1157 20.9741 17.497 20.5205 17.497 19.9897C17.497 19.4443 17.1157 18.992 16.6102 18.9388H6.67783C6.29777 18.8989 5.93037 19.0851 5.72767 19.431C5.52497 19.7636 5.52497 20.2025 5.72767 20.5484C5.93037 20.8809 6.29777 21.0805 6.67783 21.0273Z" fill="#EAEAEA"/>
</svg>
