<svg width="30" height="31" viewBox="0 0 30 31" fill="none" xmlns="http://www.w3.org/2000/svg">
  <path
    d="M15 26.5683C14.7514 26.5683 14.5129 26.4695 14.3371 26.2937C14.1613 26.1179 14.0625 25.8794 14.0625 25.6308V5.00577C14.0625 4.75713 14.1613 4.51867 14.3371 4.34286C14.5129 4.16704 14.7514 4.06827 15 4.06827C15.2486 4.06827 15.4871 4.16704 15.6629 4.34286C15.8387 4.51867 15.9375 4.75713 15.9375 5.00577V25.6308C15.9375 25.8794 15.8387 26.1179 15.6629 26.2937C15.4871 26.4695 15.2486 26.5683 15 26.5683Z"
    fill="black" />
  <path
    d="M25.3125 16.2558H4.6875C4.43886 16.2558 4.2004 16.157 4.02459 15.9812C3.84877 15.8054 3.75 15.5669 3.75 15.3183C3.75 15.0696 3.84877 14.8312 4.02459 14.6554C4.2004 14.4795 4.43886 14.3808 4.6875 14.3808H25.3125C25.5611 14.3808 25.7996 14.4795 25.9754 14.6554C26.1512 14.8312 26.25 15.0696 26.25 15.3183C26.25 15.5669 26.1512 15.8054 25.9754 15.9812C25.7996 16.157 25.5611 16.2558 25.3125 16.2558Z"
    fill="black" />
</svg>