<svg width="13" height="13" viewBox="0 0 13 13" fill="none" xmlns="http://www.w3.org/2000/svg">
<path fill-rule="evenodd" clip-rule="evenodd" d="M4.81631 3.46204C4.71034 3.60517 4.72251 3.80933 4.85639 3.9389C4.99892 4.08142 5.2317 4.08142 5.37423 3.9389L6.1296 3.17878V5.14559H6.86121V3.17878L7.61659 3.9389L7.65756 3.97424C7.80069 4.08025 8.00485 4.06847 8.13442 3.9389C8.20568 3.86764 8.24369 3.77262 8.24369 3.67761C8.24369 3.58734 8.20568 3.49233 8.13442 3.42107L6.75195 2.03384L6.70885 1.99512C6.64743 1.9489 6.57142 1.92458 6.49541 1.92458C6.39564 1.92458 6.30538 1.96258 6.23411 2.03384L4.85164 3.42107L4.81631 3.46204ZM3.75466 5.14803C2.63669 5.20083 1.74454 6.14128 1.74454 7.28699V9.6458L1.74684 9.74675C1.79874 10.8845 2.72333 11.7968 3.85863 11.7968H9.13673L9.23594 11.7944C10.3539 11.7416 11.2461 10.801 11.2461 9.65063V7.29665L11.2438 7.19531C11.1916 6.0534 10.2627 5.14569 9.13198 5.14569H6.86111V8.04587L6.85772 8.09685C6.83317 8.27996 6.67821 8.41805 6.4953 8.41805C6.29102 8.41805 6.12949 8.25371 6.12949 8.04587V5.14569H3.85388L3.75466 5.14803Z" fill="#000C19"/>
</svg>
